<svg width="30" height="30" viewBox="0 0 30 30" fill="none" xmlns="http://www.w3.org/2000/svg">
<rect width="30" height="30" fill="#E5E5E5"/>
<g clip-path="url(#clip0_0_1)">
<rect width="30" height="30" fill="white"/>
<path d="M26.0149 7.18715H7.24792L6.96963 3.9384C6.94765 3.68196 6.83463 3.44342 6.65284 3.26974C6.47105 3.09606 6.23366 2.99983 5.9874 3H3.98553C3.72415 3 3.47348 3.10856 3.28866 3.3018C3.10383 3.49503 3 3.75712 3 4.0304C3 4.30368 3.10383 4.56577 3.28866 4.759C3.47348 4.95224 3.72415 5.0608 3.98553 5.0608H5.08546L6.21948 18.2662C6.29978 19.2184 6.79145 20.2511 7.63949 20.9526C6.11169 22.9927 7.5075 26 9.99333 26C12.0557 26 13.5098 23.8495 12.8025 21.8117H18.1977C17.4915 23.8472 18.9423 26 21.008 26C21.8003 25.9991 22.56 25.6696 23.1202 25.0838C23.6805 24.4981 23.9956 23.7039 23.9965 22.8755C23.9956 22.047 23.6805 21.2528 23.1202 20.6671C22.56 20.0813 21.8003 19.7518 21.008 19.7509H9.99993C9.25088 19.7509 8.59863 19.2794 8.31704 18.5905L24.0691 17.6222C24.2787 17.6095 24.4788 17.527 24.6405 17.387C24.8021 17.247 24.9168 17.0566 24.9677 16.8437L26.9707 8.46825C27.0069 8.31623 27.0096 8.15758 26.9785 8.00433C26.9473 7.85107 26.8832 7.70725 26.791 7.58377C26.6987 7.4603 26.5808 7.36041 26.4461 7.29168C26.3115 7.22296 26.1636 7.18721 26.0138 7.18715H26.0149ZM9.99223 23.9392C9.73058 23.9265 9.48367 23.8088 9.3028 23.6107C9.12194 23.4126 9.02102 23.1493 9.02102 22.8755C9.02102 22.6016 9.12194 22.3383 9.3028 22.1402C9.48367 21.9421 9.73058 21.8244 9.99223 21.8117C10.2539 21.8244 10.5008 21.9421 10.6817 22.1402C10.8625 22.3383 10.9634 22.6016 10.9634 22.8755C10.9634 23.1493 10.8625 23.4126 10.6817 23.6107C10.5008 23.8088 10.2539 23.9265 9.99223 23.9392V23.9392ZM21.008 23.9392C20.7463 23.9265 20.4994 23.8088 20.3186 23.6107C20.1377 23.4126 20.0368 23.1493 20.0368 22.8755C20.0368 22.6016 20.1377 22.3383 20.3186 22.1402C20.4994 21.9421 20.7463 21.8244 21.008 21.8117C21.2696 21.8244 21.5166 21.9421 21.6974 22.1402C21.8783 22.3383 21.9792 22.6016 21.9792 22.8755C21.9792 23.1493 21.8783 23.4126 21.6974 23.6107C21.5166 23.8088 21.2696 23.9265 21.008 23.9392V23.9392ZM23.2309 15.6097L8.05196 16.5412L7.425 9.2491H24.7521L23.2309 15.6086V15.6097Z" fill="black"/>
</g>
<defs>
<clipPath id="clip0_0_1">
<rect width="30" height="30" fill="white"/>
</clipPath>
</defs>
</svg>
