<svg width="30" height="30" viewBox="0 0 30 30" fill="none" xmlns="http://www.w3.org/2000/svg">
<path d="M26.0149 8.18715H7.24792L6.96963 4.9384C6.94765 4.68196 6.83463 4.44342 6.65284 4.26974C6.47105 4.09606 6.23366 3.99983 5.9874 4H3.98553C3.72415 4 3.47348 4.10856 3.28866 4.3018C3.10383 4.49503 3 4.75712 3 5.0304C3 5.30368 3.10383 5.56577 3.28866 5.759C3.47348 5.95224 3.72415 6.0608 3.98553 6.0608H5.08546L6.21948 19.2662C6.29978 20.2184 6.79145 21.2511 7.63949 21.9526C6.11169 23.9927 7.5075 27 9.99333 27C12.0557 27 13.5098 24.8495 12.8025 22.8117H18.1977C17.4915 24.8472 18.9423 27 21.008 27C21.8003 26.9991 22.56 26.6696 23.1202 26.0838C23.6805 25.4981 23.9956 24.7039 23.9965 23.8755C23.9956 23.047 23.6805 22.2528 23.1202 21.6671C22.56 21.0813 21.8003 20.7518 21.008 20.7509H9.99993C9.25088 20.7509 8.59863 20.2794 8.31704 19.5905L24.0691 18.6222C24.2787 18.6095 24.4788 18.527 24.6405 18.387C24.8021 18.247 24.9168 18.0566 24.9677 17.8437L26.9707 9.46825C27.0069 9.31623 27.0096 9.15758 26.9785 9.00433C26.9473 8.85107 26.8832 8.70725 26.791 8.58377C26.6987 8.4603 26.5808 8.36041 26.4461 8.29168C26.3115 8.22296 26.1636 8.18721 26.0138 8.18715H26.0149ZM9.99223 24.9392C9.73058 24.9265 9.48367 24.8088 9.3028 24.6107C9.12194 24.4126 9.02102 24.1493 9.02102 23.8755C9.02102 23.6016 9.12194 23.3383 9.3028 23.1402C9.48367 22.9421 9.73058 22.8244 9.99223 22.8117C10.2539 22.8244 10.5008 22.9421 10.6817 23.1402C10.8625 23.3383 10.9634 23.6016 10.9634 23.8755C10.9634 24.1493 10.8625 24.4126 10.6817 24.6107C10.5008 24.8088 10.2539 24.9265 9.99223 24.9392V24.9392ZM21.008 24.9392C20.7463 24.9265 20.4994 24.8088 20.3186 24.6107C20.1377 24.4126 20.0368 24.1493 20.0368 23.8755C20.0368 23.6016 20.1377 23.3383 20.3186 23.1402C20.4994 22.9421 20.7463 22.8244 21.008 22.8117C21.2696 22.8244 21.5166 22.9421 21.6974 23.1402C21.8783 23.3383 21.9792 23.6016 21.9792 23.8755C21.9792 24.1493 21.8783 24.4126 21.6974 24.6107C21.5166 24.8088 21.2696 24.9265 21.008 24.9392V24.9392ZM23.2309 16.6097L8.05196 17.5412L7.425 10.2491H24.7521L23.2309 16.6086V16.6097Z" fill="white"/>
</svg>
